<?xml version="1.0" encoding="UTF-8" standalone="no"?>
<!-- Created with Inkscape (http://www.inkscape.org/) -->

<svg
   xmlns:dc="http://purl.org/dc/elements/1.1/"
   xmlns:cc="http://creativecommons.org/ns#"
   xmlns:rdf="http://www.w3.org/1999/02/22-rdf-syntax-ns#"
   xmlns:svg="http://www.w3.org/2000/svg"
   xmlns="http://www.w3.org/2000/svg"
   xmlns:sodipodi="http://sodipodi.sourceforge.net/DTD/sodipodi-0.dtd"
   xmlns:inkscape="http://www.inkscape.org/namespaces/inkscape"
   version="1.1"
   width="164.57143"
   height="118.91868"
   id="svg2"
   inkscape:version="0.48.4 r9939"
   sodipodi:docname="DBSCAN_Illustration_2.0.svg"
   inkscape:export-filename="G:\seamus\development\palmSieverDev\wiki\images\DBSCAN_Illustration_2.0.png"
   inkscape:export-xdpi="300"
   inkscape:export-ydpi="300">
  <sodipodi:namedview
     pagecolor="#ffffff"
     bordercolor="#666666"
     borderopacity="1"
     objecttolerance="10"
     gridtolerance="10"
     guidetolerance="10"
     inkscape:pageopacity="0"
     inkscape:pageshadow="2"
     inkscape:window-width="1168"
     inkscape:window-height="849"
     id="namedview56"
     showgrid="false"
     inkscape:zoom="2.64674"
     inkscape:cx="123.92134"
     inkscape:cy="56.445448"
     inkscape:window-x="399"
     inkscape:window-y="71"
     inkscape:window-maximized="0"
     inkscape:current-layer="svg2" />
  <defs
     id="defs4">
    <marker
       style="overflow:visible"
       id="StopL"
       refX="0.0"
       refY="0.0"
       orient="auto"
       inkscape:stockid="StopL">
      <path
         transform="scale(0.8)"
         style="fill:none;fill-opacity:0.75000000;fill-rule:evenodd;stroke:#000000;stroke-width:1.0pt"
         d="M 0.0,5.65 L 0.0,-5.65"
         id="path5036" />
    </marker>
    <marker
       style="overflow:visible"
       id="StopM"
       refX="0.0"
       refY="0.0"
       orient="auto"
       inkscape:stockid="StopM">
      <path
         transform="scale(0.4)"
         style="fill:none;fill-opacity:0.75000000;fill-rule:evenodd;stroke:#000000;stroke-width:1.0pt"
         d="M 0.0,5.65 L 0.0,-5.65"
         id="path5039" />
    </marker>
    <marker
       refX="0"
       refY="0"
       orient="auto"
       id="Arrow2Mstart"
       style="overflow:visible">
      <path
         d="M 8.7185878,4.0337352 -2.2072895,0.01601326 8.7185884,-4.0017078 c -1.7454984,2.3720609 -1.7354408,5.6174519 -6e-7,8.035443 z"
         transform="scale(0.6,0.6)"
         id="path3863"
         style="font-size:12px;fill-rule:evenodd;stroke-width:0.625;stroke-linejoin:round" />
    </marker>
    <marker
       refX="0"
       refY="0"
       orient="auto"
       id="Arrow2Mend"
       style="overflow:visible">
      <path
         d="M 8.7185878,4.0337352 -2.2072895,0.01601326 8.7185884,-4.0017078 c -1.7454984,2.3720609 -1.7354408,5.6174519 -6e-7,8.035443 z"
         transform="scale(-0.6,-0.6)"
         id="path3866"
         style="font-size:12px;fill-rule:evenodd;stroke-width:0.625;stroke-linejoin:round" />
    </marker>
    <marker
       refX="0"
       refY="0"
       orient="auto"
       id="Arrow2MstartO"
       style="overflow:visible"
       inkscape:stockid="Arrow2MstartO">
      <path
         d="M 8.7185878,4.0337352 -2.2072895,0.01601326 8.7185884,-4.0017078 c -1.7454984,2.3720609 -1.7354408,5.6174519 -6e-7,8.035443 z"
         transform="scale(0.6,0.6)"
         id="path4375"
         style="stroke-linejoin:round;font-size:12px;fill-rule:evenodd;stroke:#4d4d4d;stroke-width:0.625;fill:#4d4d4d" />
    </marker>
    <marker
       refX="0"
       refY="0"
       orient="auto"
       id="Arrow2Mendz"
       style="overflow:visible"
       inkscape:stockid="Arrow2Mendz">
      <path
         d="M 8.7185878,4.0337352 -2.2072895,0.01601326 8.7185884,-4.0017078 c -1.7454984,2.3720609 -1.7354408,5.6174519 -6e-7,8.035443 z"
         transform="scale(-0.6,-0.6)"
         id="path4378"
         style="stroke-linejoin:round;font-size:12px;fill-rule:evenodd;stroke:#4d4d4d;stroke-width:0.625;fill:#4d4d4d" />
    </marker>
    <marker
       style="overflow:visible"
       id="StopLQ"
       refX="0.0"
       refY="0.0"
       orient="auto"
       inkscape:stockid="StopLQ">
      <path
         transform="scale(0.8)"
         style="stroke-width:1.0pt;fill-rule:evenodd;stroke:#4d4d4d;fill-opacity:0.75000000;fill:none"
         d="M 0.0,5.65 L 0.0,-5.65"
         id="path6497" />
    </marker>
    <marker
       style="overflow:visible"
       id="StopLn"
       refX="0.0"
       refY="0.0"
       orient="auto"
       inkscape:stockid="StopLn">
      <path
         transform="scale(0.8)"
         style="stroke-width:1.0pt;fill-rule:evenodd;stroke:#4d4d4d;fill-opacity:0.75000000;fill:none"
         d="M 0.0,5.65 L 0.0,-5.65"
         id="path6500" />
    </marker>
    <marker
       style="overflow:visible"
       id="StopLQI"
       refX="0.0"
       refY="0.0"
       orient="auto"
       inkscape:stockid="StopLQI">
      <path
         transform="scale(0.8)"
         style="fill-opacity:0.75000000;stroke:#333333;stroke-width:1.0pt;fill:none;fill-rule:evenodd"
         d="M 0.0,5.65 L 0.0,-5.65"
         id="path6641" />
    </marker>
    <marker
       style="overflow:visible"
       id="StopLnJ"
       refX="0.0"
       refY="0.0"
       orient="auto"
       inkscape:stockid="StopLnJ">
      <path
         transform="scale(0.8)"
         style="fill-opacity:0.75000000;stroke:#333333;stroke-width:1.0pt;fill:none;fill-rule:evenodd"
         d="M 0.0,5.65 L 0.0,-5.65"
         id="path6644" />
    </marker>
    <marker
       style="overflow:visible"
       id="StopLQIc"
       refX="0.0"
       refY="0.0"
       orient="auto"
       inkscape:stockid="StopLQIc">
      <path
         transform="scale(0.8)"
         style="fill-rule:evenodd;stroke:#000000;stroke-width:1.0pt;fill:none;fill-opacity:0.75000000"
         d="M 0.0,5.65 L 0.0,-5.65"
         id="path6847" />
    </marker>
    <marker
       style="overflow:visible"
       id="StopLnJl"
       refX="0.0"
       refY="0.0"
       orient="auto"
       inkscape:stockid="StopLnJl">
      <path
         transform="scale(0.8)"
         style="fill-rule:evenodd;stroke:#000000;stroke-width:1.0pt;fill:none;fill-opacity:0.75000000"
         d="M 0.0,5.65 L 0.0,-5.65"
         id="path6850" />
    </marker>
  </defs>
  <metadata
     id="metadata7">
    <rdf:RDF>
      <cc:Work
         rdf:about="">
        <dc:format>image/svg+xml</dc:format>
        <dc:type
           rdf:resource="http://purl.org/dc/dcmitype/StillImage" />
        <dc:title></dc:title>
      </cc:Work>
    </rdf:RDF>
  </metadata>
  <g
     id="g4486"
     transform="translate(-273.94484,-120.43362)">
    <path
       style="opacity:0.5;fill:none;stroke:#0000ff;stroke-width:1;stroke-linecap:round;stroke-miterlimit:4;stroke-opacity:1;stroke-dasharray:none;stroke-dashoffset:0"
       id="path4488"
       d="m 347.14286,150.21933 a 29.285715,29.285715 0 1 1 -58.57143,0 29.285715,29.285715 0 1 1 58.57143,0 z"
       inkscape:connector-curvature="0" />
    <path
       style="fill:#0000ff;stroke:#000000;stroke-width:4.09999943;stroke-miterlimit:4;stroke-dasharray:none"
       id="path4490"
       transform="matrix(0.12195124,0,0,0.12195124,279.09407,131.8999)"
       d="m 347.14286,150.21933 a 29.285715,29.285715 0 1 1 -58.57143,0 29.285715,29.285715 0 1 1 58.57143,0 z"
       inkscape:connector-curvature="0" />
  </g>
  <g
     transform="translate(-288.07143,-66.086366)"
     id="g3788">
    <path
       style="opacity:0.5;fill:none;stroke:#ffff00;stroke-width:1;stroke-linecap:round;stroke-miterlimit:4;stroke-opacity:1;stroke-dasharray:none;stroke-dashoffset:0"
       id="path2985"
       d="m 347.14286,150.21933 a 29.285715,29.285715 0 1 1 -58.57143,0 29.285715,29.285715 0 1 1 58.57143,0 z"
       inkscape:connector-curvature="0" />
    <path
       style="fill:#ffff00;stroke:#000000;stroke-width:4.09999943;stroke-miterlimit:4;stroke-dasharray:none"
       id="path2987"
       transform="matrix(0.12195124,0,0,0.12195124,279.09407,131.8999)"
       d="m 347.14286,150.21933 a 29.285715,29.285715 0 1 1 -58.57143,0 29.285715,29.285715 0 1 1 58.57143,0 z"
       inkscape:connector-curvature="0" />
  </g>
  <g
     id="g3792"
     transform="translate(-270.07143,-75.086366)">
    <path
       style="opacity:0.5;fill:none;stroke:#ff0000;stroke-width:1;stroke-linecap:round;stroke-miterlimit:4;stroke-opacity:1;stroke-dasharray:none;stroke-dashoffset:0"
       id="path3794"
       d="m 347.14286,150.21933 a 29.285715,29.285715 0 1 1 -58.57143,0 29.285715,29.285715 0 1 1 58.57143,0 z"
       inkscape:connector-curvature="0" />
    <path
       style="fill:#ff0000;stroke:#000000;stroke-width:4.09999943;stroke-miterlimit:4;stroke-dasharray:none"
       id="path3796"
       transform="matrix(0.12195124,0,0,0.12195124,279.09407,131.8999)"
       d="m 347.14286,150.21933 a 29.285715,29.285715 0 1 1 -58.57143,0 29.285715,29.285715 0 1 1 58.57143,0 z"
       inkscape:connector-curvature="0" />
  </g>
  <g
     id="g3798"
     transform="translate(-250.07143,-61.086366)">
    <path
       style="opacity:0.5;fill:none;stroke:#ff0000;stroke-width:1;stroke-linecap:round;stroke-miterlimit:4;stroke-opacity:1;stroke-dasharray:none;stroke-dashoffset:0"
       id="path3800"
       d="m 347.14286,150.21933 a 29.285715,29.285715 0 1 1 -58.57143,0 29.285715,29.285715 0 1 1 58.57143,0 z"
       inkscape:connector-curvature="0" />
    <path
       style="fill:#ff0000;stroke:#000000;stroke-width:4.09999943;stroke-miterlimit:4;stroke-dasharray:none"
       id="path3802"
       transform="matrix(0.12195124,0,0,0.12195124,279.09407,131.8999)"
       d="m 347.14286,150.21933 a 29.285715,29.285715 0 1 1 -58.57143,0 29.285715,29.285715 0 1 1 58.57143,0 z"
       inkscape:connector-curvature="0" />
  </g>
  <g
     id="g3828"
     transform="translate(-183.07143,-81.086366)">
    <path
       style="opacity:0.5;fill:none;stroke:#ffff00;stroke-width:1;stroke-linecap:round;stroke-miterlimit:4;stroke-opacity:1;stroke-dasharray:none;stroke-dashoffset:0"
       id="path3830"
       d="m 347.14286,150.21933 a 29.285715,29.285715 0 1 1 -58.57143,0 29.285715,29.285715 0 1 1 58.57143,0 z"
       inkscape:connector-curvature="0" />
    <path
       style="fill:#ffff00;stroke:#000000;stroke-width:4.09999943;stroke-miterlimit:4;stroke-dasharray:none"
       id="path3832"
       transform="matrix(0.12195124,0,0,0.12195124,279.09407,131.8999)"
       d="m 347.14286,150.21933 a 29.285715,29.285715 0 1 1 -58.57143,0 29.285715,29.285715 0 1 1 58.57143,0 z"
       inkscape:connector-curvature="0" />
  </g>
  <g
     id="g3804"
     transform="translate(-228.07143,-70.086366)">
    <path
       style="opacity:0.5;fill:none;stroke:#ff0000;stroke-width:1;stroke-linecap:round;stroke-miterlimit:4;stroke-opacity:1;stroke-dasharray:none;stroke-dashoffset:0"
       id="path3806"
       d="m 347.14286,150.21933 a 29.285715,29.285715 0 1 1 -58.57143,0 29.285715,29.285715 0 1 1 58.57143,0 z"
       inkscape:connector-curvature="0" />
    <path
       style="fill:#ff0000;stroke:#000000;stroke-width:4.09999943;stroke-miterlimit:4;stroke-dasharray:none"
       id="path3808"
       transform="matrix(0.12195124,0,0,0.12195124,279.09407,131.8999)"
       d="m 347.14286,150.21933 a 29.285715,29.285715 0 1 1 -58.57143,0 29.285715,29.285715 0 1 1 58.57143,0 z"
       inkscape:connector-curvature="0" />
  </g>
  <g
     id="g3810"
     transform="translate(-252.07143,-82.086366)">
    <path
       style="opacity:0.5;fill:none;stroke:#ff0000;stroke-width:1;stroke-linecap:round;stroke-miterlimit:4;stroke-opacity:1;stroke-dasharray:none;stroke-dashoffset:0"
       id="path3812"
       d="m 347.14286,150.21933 a 29.285715,29.285715 0 1 1 -58.57143,0 29.285715,29.285715 0 1 1 58.57143,0 z"
       inkscape:connector-curvature="0" />
    <path
       style="fill:#ff0000;stroke:#000000;stroke-width:4.09999943;stroke-miterlimit:4;stroke-dasharray:none"
       id="path3814"
       transform="matrix(0.12195124,0,0,0.12195124,279.09407,131.8999)"
       d="m 347.14286,150.21933 a 29.285715,29.285715 0 1 1 -58.57143,0 29.285715,29.285715 0 1 1 58.57143,0 z"
       inkscape:connector-curvature="0" />
  </g>
  <g
     id="g3816"
     transform="translate(-230.07143,-89.086366)">
    <path
       style="opacity:0.5;fill:none;stroke:#ff0000;stroke-width:1;stroke-linecap:round;stroke-miterlimit:4;stroke-opacity:1;stroke-dasharray:none;stroke-dashoffset:0"
       id="path3818"
       d="m 347.14286,150.21933 a 29.285715,29.285715 0 1 1 -58.57143,0 29.285715,29.285715 0 1 1 58.57143,0 z"
       inkscape:connector-curvature="0" />
    <path
       style="fill:#ff0000;stroke:#000000;stroke-width:4.09999943;stroke-miterlimit:4;stroke-dasharray:none"
       id="path3820"
       transform="matrix(0.12195124,0,0,0.12195124,279.09407,131.8999)"
       d="m 347.14286,150.21933 a 29.285715,29.285715 0 1 1 -58.57143,0 29.285715,29.285715 0 1 1 58.57143,0 z"
       inkscape:connector-curvature="0" />
  </g>
  <g
     id="g3822"
     transform="translate(-207.07143,-81.086366)">
    <path
       style="opacity:0.5;fill:none;stroke:#ff0000;stroke-width:1;stroke-linecap:round;stroke-miterlimit:4;stroke-opacity:1;stroke-dasharray:none;stroke-dashoffset:0"
       id="path3824"
       d="m 347.14286,150.21933 a 29.285715,29.285715 0 1 1 -58.57143,0 29.285715,29.285715 0 1 1 58.57143,0 z"
       inkscape:connector-curvature="0" />
    <path
       style="fill:#ff0000;stroke:#000000;stroke-width:4.09999943;stroke-miterlimit:4;stroke-dasharray:none"
       id="path3826"
       transform="matrix(0.12195124,0,0,0.12195124,279.09407,131.8999)"
       d="m 347.14286,150.21933 a 29.285715,29.285715 0 1 1 -58.57143,0 29.285715,29.285715 0 1 1 58.57143,0 z"
       inkscape:connector-curvature="0" />
  </g>
  <path
     style="fill:none;stroke:#000000;stroke-width:1px;stroke-linecap:butt;stroke-linejoin:miter;stroke-opacity:1;marker-end:url(#Arrow2Mend)"
     id="path3834"
     d="m 44.66265,76.604894 -11.39821,5.93332"
     inkscape:connector-curvature="0" />
  <path
     style="fill:#b3b3b3;stroke:#000000;stroke-width:1px;stroke-linecap:butt;stroke-linejoin:miter;stroke-opacity:1;marker-end:url(#Arrow2Mend)"
     id="path4280"
     d="m 114.1449,69.266314 16.55082,-0.46841"
     inkscape:connector-curvature="0" />
  <path
     style="fill:none;stroke:#000000;stroke-width:1px;stroke-linecap:butt;stroke-linejoin:miter;stroke-opacity:1;marker-start:url(#Arrow2Mstart);marker-end:url(#Arrow2Mend)"
     id="path4282"
     d="m 91.50462,62.083884 15.45784,5.46491"
     inkscape:connector-curvature="0" />
  <path
     style="fill:none;stroke:#000000;stroke-width:1px;stroke-linecap:butt;stroke-linejoin:miter;stroke-opacity:1;marker-start:url(#Arrow2Mstart);marker-end:url(#Arrow2Mend)"
     id="path4470"
     d="m 69.64504,66.299654 13.7403,-4.3719"
     inkscape:connector-curvature="0" />
  <path
     style="fill:none;stroke:#000000;stroke-width:1px;stroke-linecap:butt;stroke-linejoin:miter;stroke-opacity:1;marker-start:url(#Arrow2Mstart);marker-end:url(#Arrow2Mend)"
     id="path4472"
     d="m 69.95732,69.734734 15.61398,8.43157"
     inkscape:connector-curvature="0" />
  <path
     style="fill:none;stroke:#000000;stroke-width:1px;stroke-linecap:butt;stroke-linejoin:miter;stroke-opacity:1;marker-start:url(#Arrow2Mstart);marker-end:url(#Arrow2Mend)"
     id="path4474"
     d="m 94.47128,78.946984 12.49118,-6.87014"
     inkscape:connector-curvature="0" />
  <path
     style="fill:none;stroke:#000000;stroke-width:1px;stroke-linecap:butt;stroke-linejoin:miter;stroke-opacity:1;marker-start:url(#Arrow2Mstart);marker-end:url(#Arrow2Mend)"
     id="path4476"
     d="m 51.06439,74.106644 11.3982,-4.99646"
     inkscape:connector-curvature="0" />
  <path
     style="fill:none;stroke:#000000;stroke-width:1px;stroke-linecap:butt;stroke-linejoin:miter;stroke-opacity:1;marker-start:url(#Arrow2Mstart);marker-end:url(#Arrow2Mend)"
     id="path4478"
     d="m 72.61169,88.783794 13.42802,-6.55786"
     inkscape:connector-curvature="0" />
  <path
     style="fill:none;stroke:#000000;stroke-width:1px;stroke-linecap:butt;stroke-linejoin:miter;stroke-opacity:1;marker-start:url(#Arrow2Mstart);marker-end:url(#Arrow2Mend)"
     id="path4480"
     d="m 51.53281,76.917164 13.42802,9.83683"
     inkscape:connector-curvature="0" />
  <path
     style="fill:none;stroke:#000000;stroke-width:1px;stroke-linecap:butt;stroke-linejoin:miter;stroke-opacity:1;marker-start:url(#Arrow2Mstart);marker-end:url(#Arrow2Mend)"
     id="path4482"
     d="m 66.67838,72.701384 1.71753,12.80349"
     inkscape:connector-curvature="0" />
  <path
     style="fill:none;stroke:#000000;stroke-width:1px;stroke-linecap:butt;stroke-linejoin:miter;stroke-opacity:1;marker-start:url(#Arrow2Mstart);marker-end:url(#Arrow2Mend)"
     id="path4484"
     d="m 88.22568,64.894394 0.78069,10.77367"
     inkscape:connector-curvature="0" />
  <rect
     style="opacity:0.6;fill:#ffffff;fill-opacity:1;stroke:none"
     id="rect6985"
     width="27.328993"
     height="10.197296"
     x="88.635902"
     y="46.956768" />
  <text
     style="font-size:13px;font-style:oblique;font-variant:normal;font-weight:normal;font-stretch:normal;text-align:center;line-height:125%;letter-spacing:0px;word-spacing:0px;text-anchor:middle;fill:#800000;fill-opacity:1;stroke:none;font-family:Arial;-inkscape-font-specification:Arial Oblique"
     xml:space="preserve"
     id="text4514"
     y="56.840675"
     x="101.97763"
     sodipodi:linespacing="125%"><tspan
       style="font-size:13px;font-style:oblique;font-variant:normal;font-weight:normal;font-stretch:normal;fill:#800000;fill-opacity:1;font-family:Arial;-inkscape-font-specification:Arial Oblique"
       id="tspan4516"
       y="56.840675"
       x="101.97763">Core</tspan></text>
  <path
     sodipodi:nodetypes="cc"
     style="marker-end:url(#StopLnJl);stroke-opacity:1;fill-opacity:1;marker-start:url(#StopLQIc);stroke-dashoffset:0;stroke:#000000;stroke-dasharray:2.25000000000000000, 1.12500000000000000;stroke-miterlimit:4;stroke-width:1.12500000000000000;marker-mid:none;fill:none"
     d="M 43.608958,30.003339 14.716122,32.6738"
     id="path3033"
     inkscape:connector-curvature="0" />
  <text
     xml:space="preserve"
     style="font-size:10px;font-style:oblique;font-variant:normal;font-weight:normal;font-stretch:normal;text-align:end;line-height:100%;letter-spacing:0px;word-spacing:0px;writing-mode:lr-tb;text-anchor:end;fill:#000000;fill-opacity:1;stroke:none;font-family:Arial;-inkscape-font-specification:Arial Oblique"
     x="35.248226"
     y="28.286928"
     id="text6617"
     sodipodi:linespacing="100%"><tspan
       sodipodi:role="line"
       id="tspan6619"
       x="35.248226"
       y="28.286928"
       style="font-size:10px;font-style:oblique;fill:#000000;fill-opacity:1;-inkscape-font-specification:Arial Oblique">Eps</tspan></text>
  <text
     sodipodi:linespacing="100%"
     id="text6769"
     y="11.631246"
     x="161.1591"
     style="font-size:12px;font-style:oblique;font-variant:normal;font-weight:normal;font-stretch:normal;text-align:end;line-height:100%;letter-spacing:0px;word-spacing:0px;writing-mode:lr-tb;text-anchor:end;fill:#000000;fill-opacity:1;stroke:none;font-family:Arial;-inkscape-font-specification:Arial Oblique"
     xml:space="preserve"><tspan
       style="font-size:12px;font-style:oblique;fill:#000000;fill-opacity:1;-inkscape-font-specification:Arial Oblique"
       y="11.631246"
       x="161.1591"
       id="tspan6771"
       sodipodi:role="line">MinPts = 4</tspan></text>
  <rect
     style="opacity:0.6;fill:#ffffff;fill-opacity:1;stroke:none"
     id="rect6989"
     width="33.751987"
     height="10.764031"
     x="45.186226"
     y="15.408521" />
  <text
     sodipodi:linespacing="125%"
     x="61.928356"
     y="25.481344"
     id="text6819"
     xml:space="preserve"
     style="font-size:13px;font-style:oblique;font-variant:normal;font-weight:normal;font-stretch:normal;text-align:center;line-height:125%;letter-spacing:0px;word-spacing:0px;text-anchor:middle;fill:#000080;fill-opacity:1;stroke:none;font-family:Arial;-inkscape-font-specification:Arial Oblique"><tspan
       x="61.928356"
       y="25.481344"
       id="tspan6821"
       style="font-size:13px;font-style:oblique;font-variant:normal;font-weight:normal;font-stretch:normal;fill:#000080;fill-opacity:1;font-family:Arial;-inkscape-font-specification:Arial Oblique">Noise</tspan></text>
  <rect
     y="87.761681"
     x="4.38131"
     height="12.086412"
     width="40.93063"
     id="rect6987"
     style="opacity:0.6;fill:#ffffff;fill-opacity:1;stroke:none" />
  <text
     style="font-size:13px;font-style:oblique;font-variant:normal;font-weight:normal;font-stretch:normal;text-align:center;line-height:125%;letter-spacing:0px;word-spacing:0px;text-anchor:middle;fill:#a0892c;fill-opacity:1;stroke:none;font-family:Arial;-inkscape-font-specification:Arial Oblique"
     xml:space="preserve"
     id="text6981"
     y="98.023415"
     x="24.146029"
     sodipodi:linespacing="125%"><tspan
       style="font-size:13px;font-style:oblique;font-variant:normal;font-weight:normal;font-stretch:normal;fill:#a0892c;fill-opacity:1;font-family:Arial;-inkscape-font-specification:Arial Oblique"
       id="tspan6983"
       y="98.023415"
       x="24.146029">Border</tspan></text>
</svg>
